<svg width="120" height="30" viewBox="0 0 120 30" fill="none" xmlns="http://www.w3.org/2000/svg">
  <g fill="currentColor">
    <path d="M10 4C6.5 4 4 6.5 4 10V18L6 16L8 18L10 16L12 18L14 16L16 18V10C16 6.5 13.5 4 10 4ZM8 9C8.55 9 9 9.45 9 10C9 10.55 8.55 11 8 11C7.45 11 7 10.55 7 10C7 9.45 7.45 9 8 9ZM12 9C12.55 9 13 9.45 13 10C13 10.55 12.55 11 12 11C11.45 11 11 10.55 11 10C11 9.45 11.45 9 12 9Z" />
    <text x="24" y="19" font-family="system-ui, -apple-system, sans-serif" font-weight="800" font-size="11" letter-spacing="1.2">PHANTOM</text>
  </g>
</svg>
